<svg width="24" height="24" viewBox="0 0 24 24" fill="none" xmlns="http://www.w3.org/2000/svg">
<g id="&#236;&#149;&#177; &#235;&#178;&#132;&#236;&#160;&#132;">
<path id="Vector" d="M12.2837 7.76204C12.5436 7.50278 12.852 7.2973 13.1913 7.15733C13.5307 7.01736 13.8942 6.94565 14.2613 6.94629C14.6283 6.94693 14.9916 7.01991 15.3305 7.16106C15.6693 7.30222 15.977 7.50877 16.236 7.76893C17.3254 8.85875 17.334 10.6297 16.2429 11.723C15.983 11.9822 15.6746 12.1877 15.3352 12.3277C14.9959 12.4676 14.6324 12.5394 14.2653 12.5387C13.8983 12.5381 13.535 12.4651 13.1961 12.3239C12.8573 12.1828 12.5496 11.9762 12.2906 11.7161C12.0305 11.457 11.824 11.1491 11.6829 10.8101C11.5418 10.4711 11.4689 10.1077 11.4683 9.74049C11.4676 9.37329 11.5393 9.00957 11.6792 8.6701C11.8191 8.33064 12.0245 8.02207 12.2837 7.76204ZM15.0157 8.98636C14.8156 8.78497 14.5439 8.67129 14.2601 8.67032C13.9763 8.66935 13.7037 8.78116 13.5023 8.98118C13.3026 9.1829 13.1911 9.45571 13.1924 9.73962C13.1937 10.0235 13.3077 10.2953 13.5092 10.4952C13.709 10.6968 13.9807 10.8108 14.2645 10.8121C14.5482 10.8134 14.8209 10.7019 15.0226 10.5021C15.2223 10.3004 15.3337 10.0276 15.3324 9.74366C15.3312 9.45975 15.2172 9.18797 15.0157 8.98808V8.98636ZM21.6156 4.5788C21.4534 4.06374 21.1694 3.59542 20.7878 3.21358C20.4061 2.83173 19.938 2.54763 19.4231 2.38537C17.9679 1.92694 16.415 1.87649 14.9331 2.23951C13.4513 2.60252 12.0973 3.3651 11.0185 4.4443L9.93429 5.53067C9.18136 5.20645 8.34853 5.11563 7.54345 5.26995C6.73838 5.42427 5.99809 5.81663 5.41827 6.39631L4.06346 7.74997C3.9832 7.83006 3.91953 7.9252 3.87608 8.02995C3.83263 8.1347 3.81027 8.24699 3.81027 8.3604C3.81027 8.47381 3.83263 8.58611 3.87608 8.69085C3.91953 8.7956 3.9832 8.89075 4.06346 8.97084L5.52859 10.4366C5.41404 10.8734 5.41583 11.3327 5.53377 11.7686C5.6517 12.2046 5.88168 12.602 6.20082 12.9214L6.48867 13.2094L5.15627 14.0061C5.04367 14.0734 4.9479 14.1655 4.87626 14.2754C4.80463 14.3853 4.75901 14.5101 4.74288 14.6403C4.72676 14.7705 4.74055 14.9027 4.78322 15.0268C4.82588 15.1509 4.89629 15.2635 4.98908 15.3563L8.64843 19.0172C8.74113 19.11 8.85378 19.1804 8.9778 19.2231C9.10182 19.2658 9.23395 19.2796 9.36411 19.2635C9.49427 19.2473 9.61903 19.2017 9.72889 19.13C9.83876 19.0584 9.93082 18.9626 9.99807 18.8499L10.7944 17.5187L11.0823 17.8049C11.7545 18.4792 12.7077 18.7033 13.5678 18.4774L15.0329 19.9432C15.1945 20.1048 15.4137 20.1956 15.6422 20.1956C15.8708 20.1956 16.0899 20.1048 16.2516 19.9432L17.6046 18.5895C18.1844 18.0097 18.5769 17.2691 18.7314 16.4637C18.886 15.6583 18.7955 14.825 18.4716 14.0716L19.5558 12.9852C20.6346 11.9063 21.397 10.5521 21.7601 9.07001C22.1233 7.58788 22.0733 6.0345 21.6156 4.5788ZM18.906 4.03044C19.1563 4.10945 19.3839 4.24774 19.5693 4.43358C19.7548 4.61941 19.8927 4.84729 19.9712 5.09784C20.3343 6.25243 20.3741 7.48449 20.0864 8.66012C19.7986 9.83576 19.1942 10.91 18.3389 11.7661L13.5213 16.5858C13.3596 16.7474 13.1405 16.8382 12.9119 16.8382C12.6834 16.8382 12.4642 16.7474 12.3026 16.5858L7.42118 11.7023C7.25961 11.5406 7.16884 11.3213 7.16884 11.0927C7.16884 10.8641 7.25961 10.6448 7.42118 10.4831L12.2388 5.66517C13.0947 4.80922 14.1688 4.2044 15.3443 3.91648C16.5198 3.62857 17.7517 3.66858 18.906 4.03216V4.03044ZM17.072 15.4718C17.1358 16.1495 16.9083 16.8513 16.3877 17.3704L15.6431 18.1153L15.0364 17.5083L17.072 15.4718ZM6.63691 7.61546C6.88334 7.36861 7.18123 7.17925 7.50928 7.06091C7.83734 6.94257 8.18747 6.89817 8.53467 6.93088L6.50074 8.96566L5.89228 8.3604L6.63691 7.61546ZM9.53957 16.2616L9.08797 17.0152L6.99198 14.9183L7.74695 14.4665L9.53957 16.2599V16.2616ZM6.22495 19.0034C6.30508 18.9233 6.36866 18.8283 6.41207 18.7236C6.45548 18.619 6.47787 18.5068 6.47795 18.3936C6.47803 18.2803 6.4558 18.1681 6.41254 18.0634C6.36928 17.9587 6.30583 17.8635 6.22581 17.7834C6.14579 17.7032 6.05078 17.6396 5.94619 17.5962C5.8416 17.5527 5.72948 17.5303 5.61624 17.5303C5.503 17.5302 5.39085 17.5524 5.2862 17.5957C5.18155 17.639 5.08644 17.7025 5.00631 17.7825L2.73107 20.0587C2.65094 20.1388 2.58735 20.2338 2.54394 20.3385C2.50053 20.4431 2.47815 20.5553 2.47807 20.6685C2.47799 20.7818 2.50021 20.894 2.54347 20.9987C2.58674 21.1034 2.65019 21.1986 2.7302 21.2787C2.81022 21.3589 2.90524 21.4225 3.00983 21.4659C3.11442 21.5094 3.22653 21.5317 3.33977 21.5318C3.45301 21.5319 3.56516 21.5097 3.66981 21.4664C3.77447 21.4231 3.86957 21.3596 3.9497 21.2796L6.22495 19.0034ZM4.39441 15.9529C4.55598 16.1146 4.64674 16.3339 4.64674 16.5625C4.64674 16.7911 4.55598 17.0104 4.39441 17.1721L3.48086 18.086C3.40124 18.1682 3.30605 18.2338 3.20084 18.2788C3.09563 18.3238 2.98251 18.3475 2.86808 18.3483C2.75365 18.3491 2.6402 18.3271 2.53435 18.2836C2.4285 18.2401 2.33237 18.176 2.25156 18.0949C2.17076 18.0138 2.10691 17.9175 2.06372 17.8115C2.02054 17.7055 1.99889 17.5919 2.00004 17.4774C2.0012 17.3629 2.02513 17.2498 2.07044 17.1447C2.11575 17.0396 2.18153 16.9445 2.26395 16.8651L3.1775 15.9529C3.33904 15.7918 3.55785 15.7013 3.78595 15.7013C4.01406 15.7013 4.23286 15.7918 4.39441 15.9529ZM8.05377 20.833C8.13608 20.7534 8.20174 20.6583 8.2469 20.5531C8.29207 20.4479 8.31585 20.3348 8.31684 20.2203C8.31784 20.1058 8.29603 19.9923 8.2527 19.8863C8.20936 19.7803 8.14537 19.6841 8.06445 19.6031C7.98353 19.5222 7.8873 19.4582 7.78139 19.4148C7.67547 19.3715 7.56198 19.3496 7.44755 19.3506C7.33312 19.3516 7.22003 19.3754 7.11488 19.4206C7.00973 19.4658 6.91463 19.5315 6.83513 19.6138L5.92158 20.5277C5.84157 20.6079 5.77812 20.7031 5.73485 20.8078C5.69159 20.9124 5.66937 21.0246 5.66945 21.1379C5.66961 21.3667 5.76062 21.5861 5.92245 21.7478C6.08428 21.9094 6.30367 22.0002 6.53237 22C6.76107 21.9998 6.98034 21.9088 7.14194 21.7469L8.05549 20.833H8.05377Z" fill="#868A92"/>
</g>
</svg>
