<svg width="20" height="20" viewBox="0 0 20 20" fill="none" xmlns="http://www.w3.org/2000/svg">
<g id="&#236;&#182;&#148;&#234;&#176;&#128;_20X20">
<circle id="Ellipse 43" cx="10" cy="10" r="7.25" stroke="#353C49" stroke-opacity="0.6" stroke-width="1.5"/>
<path id="Union" fill-rule="evenodd" clip-rule="evenodd" d="M10.75 7C10.75 6.58579 10.4142 6.25 10 6.25C9.58579 6.25 9.25 6.58579 9.25 7V9.25H7C6.58579 9.25 6.25 9.58579 6.25 10C6.25 10.4142 6.58579 10.75 7 10.75H9.25V13C9.25 13.4142 9.58579 13.75 10 13.75C10.4142 13.75 10.75 13.4142 10.75 13V10.75H13C13.4142 10.75 13.75 10.4142 13.75 10C13.75 9.58579 13.4142 9.25 13 9.25H10.75V7Z" fill="#353C49" fill-opacity="0.6"/>
</g>
</svg>
