<svg width="20" height="20" viewBox="0 0 20 20" fill="none" xmlns="http://www.w3.org/2000/svg">
<g id="X_20X20">
<path id="Union" fill-rule="evenodd" clip-rule="evenodd" d="M3.53033 2.46967C3.23744 2.17678 2.76256 2.17678 2.46967 2.46967C2.17678 2.76256 2.17678 3.23744 2.46967 3.53033L8.93939 10L2.46977 16.4697C2.17687 16.7626 2.17687 17.2374 2.46977 17.5303C2.76266 17.8232 3.23753 17.8232 3.53043 17.5303L10 11.0607L16.4697 17.5303C16.7626 17.8232 17.2374 17.8232 17.5303 17.5303C17.8232 17.2374 17.8232 16.7626 17.5303 16.4697L11.0607 10L17.5304 3.53033C17.8233 3.23744 17.8233 2.76256 17.5304 2.46967C17.2375 2.17678 16.7627 2.17678 16.4698 2.46967L10 8.93939L3.53033 2.46967Z" fill="black"/>
</g>
</svg>
