<svg width="24" height="24" viewBox="0 0 24 24" fill="none" xmlns="http://www.w3.org/2000/svg">
<g id="&#236;&#186;&#160;&#237;&#141;&#188;&#236;&#138;&#164;&#235;&#167;&#181;">
<g id="Exclude">
<mask id="path-1-inside-1_297_10263" fill="white">
<path fill-rule="evenodd" clip-rule="evenodd" d="M11.8 24C15.1 24 20.6 16.3 20.6 10.8C20.6 5.93989 16.6601 2 11.8 2C6.93989 2 3 5.93989 3 10.8C3 16.3 8.5 24 11.8 24ZM11.8 13C13.015 13 14 12.015 14 10.8C14 9.58497 13.015 8.6 11.8 8.6C10.585 8.6 9.6 9.58497 9.6 10.8C9.6 12.015 10.585 13 11.8 13Z"/>
</mask>
<path d="M18.6 10.8C18.6 12.9902 17.4552 15.8948 15.7869 18.3331C14.9706 19.5261 14.0952 20.5079 13.2948 21.1679C12.4292 21.8817 11.9205 22 11.8 22V26C13.3295 26 14.7458 25.1558 15.8396 24.254C16.9986 23.2983 18.1169 22.0114 19.0881 20.5919C20.9948 17.8052 22.6 14.1098 22.6 10.8H18.6ZM11.8 4C15.5555 4 18.6 7.04446 18.6 10.8H22.6C22.6 4.83532 17.7647 0 11.8 0V4ZM5 10.8C5 7.04446 8.04446 4 11.8 4V0C5.83532 0 1 4.83532 1 10.8H5ZM11.8 22C11.6795 22 11.1708 21.8817 10.3052 21.1679C9.5048 20.5079 8.62938 19.5261 7.81311 18.3331C6.14478 15.8948 5 12.9902 5 10.8H1C1 14.1098 2.60522 17.8052 4.51189 20.5919C5.48312 22.0114 6.60145 23.2983 7.76045 24.254C8.85416 25.1558 10.2705 26 11.8 26V22ZM12 10.8C12 10.9105 11.9105 11 11.8 11V15C14.1196 15 16 13.1196 16 10.8H12ZM11.8 10.6C11.9105 10.6 12 10.6895 12 10.8H16C16 8.4804 14.1196 6.6 11.8 6.6V10.6ZM11.6 10.8C11.6 10.6895 11.6895 10.6 11.8 10.6V6.6C9.4804 6.6 7.6 8.4804 7.6 10.8H11.6ZM11.8 11C11.6895 11 11.6 10.9105 11.6 10.8H7.6C7.6 13.1196 9.4804 15 11.8 15V11Z" fill="#868A92" mask="url(#path-1-inside-1_297_10263)"/>
</g>
</g>
</svg>
