<svg width="20" height="20" viewBox="0 0 20 20" fill="none" xmlns="http://www.w3.org/2000/svg">
<g id="checkmark.circle.fill 1" clip-path="url(#clip0_297_10255)">
<g id="Group">
<path id="Vector" d="M9.99999 20C15.4706 20 20 15.4608 20 9.99999C20 4.52941 15.4608 0 9.99018 0C4.52941 0 0 4.52941 0 9.99999C0 15.4608 4.53921 20 9.99999 20ZM8.90195 14.7941C8.56862 14.7941 8.29411 14.6568 8.0392 14.3137L5.57842 11.2941C5.43137 11.098 5.34313 10.8823 5.34313 10.6568C5.34313 10.2157 5.68626 9.85293 6.12745 9.85293C6.41176 9.85293 6.62744 9.94116 6.87254 10.2647L8.86273 12.8333L13.049 6.10783C13.2353 5.81372 13.4902 5.65686 13.7451 5.65686C14.1765 5.65686 14.5784 5.95097 14.5784 6.41176C14.5784 6.62744 14.4509 6.85293 14.3333 7.05881L9.72548 14.3137C9.51959 14.6373 9.23528 14.7941 8.90195 14.7941Z" fill="#3DBD80"/>
</g>
</g>
<defs>
<clipPath id="clip0_297_10255">
<rect width="20" height="20" fill="white"/>
</clipPath>
</defs>
</svg>
