<svg width="24" height="24" viewBox="0 0 24 24" fill="none" xmlns="http://www.w3.org/2000/svg">
<g id="&#237;&#148;&#188;&#235;&#147;&#156;&#235;&#176;&#177;">
<path id="Vector" d="M9.98989 6.02165H4.99711C4.46745 6.02165 3.95947 6.23206 3.58494 6.60659C3.21041 6.98113 3 7.4891 3 8.01877V19.0029C3 19.5326 3.21041 20.0405 3.58494 20.4151C3.95947 20.7896 4.46745 21 4.99711 21H15.9812C16.5109 21 17.0189 20.7896 17.3934 20.4151C17.7679 20.0405 17.9783 19.5326 17.9783 19.0029V15.0085M16.5664 4.60969C16.7506 4.41895 16.971 4.26681 17.2146 4.16214C17.4583 4.05747 17.7204 4.00238 17.9855 4.00008C18.2507 3.99777 18.5137 4.0483 18.7591 4.14872C19.0046 4.24913 19.2275 4.39743 19.4151 4.58494C19.6026 4.77245 19.7509 4.99544 19.8513 5.24087C19.9517 5.48631 20.0022 5.74929 19.9999 6.01447C19.9976 6.27964 19.9425 6.5417 19.8379 6.78536C19.7332 7.02901 19.581 7.24939 19.3903 7.43361L10.8167 16.0072H7.99278V13.1833L16.5664 4.60969Z" stroke="#868A92" stroke-width="2" stroke-linecap="round" stroke-linejoin="round"/>
</g>
</svg>
