<svg width="21" height="21" viewBox="0 0 21 21" fill="none" xmlns="http://www.w3.org/2000/svg">
<g id="Group 148">
<path id="Vector" d="M15.8926 1H4.60735C2.61507 1 1 2.61507 1 4.60735V15.8926C1 17.8849 2.61507 19.5 4.60735 19.5H15.8926C17.8849 19.5 19.5 17.8849 19.5 15.8926V4.60735C19.5 2.61507 17.8849 1 15.8926 1Z" stroke="#868A92" stroke-width="1.89744" stroke-miterlimit="10"/>
<path id="Vector_2" d="M10.2516 3.19238C6.56626 3.19238 3.57812 5.956 3.57812 9.36483C3.57812 11.8826 4.63299 13.084 6.07704 14.1799L6.08413 14.183V17.1373C6.08413 17.2767 6.24327 17.3563 6.35513 17.2736L8.88556 15.3939L8.93992 15.4175C9.36376 15.4955 9.80256 15.5373 10.2516 15.5373C13.937 15.5373 16.9243 12.7737 16.9243 9.36483C16.9243 5.956 13.937 3.19238 10.2516 3.19238ZM8.01504 10.9286C8.66891 10.9286 9.22904 10.5371 9.39685 9.93205H10.3643C10.1279 11.0964 9.22195 11.859 8.01504 11.859C6.61275 11.859 5.50037 10.8128 5.50037 9.35695C5.50037 7.90109 6.61196 6.85488 8.01504 6.85488C9.23377 6.85488 10.146 7.63323 10.3714 8.81809H9.4063C9.25977 8.17445 8.68073 7.77268 8.01504 7.77268C7.07204 7.77268 6.44494 8.44546 6.44494 9.35695C6.44494 10.2684 7.15791 10.9278 8.01504 10.9278M14.3899 11.7629H13.5029V9.76267C13.5029 9.30259 13.2342 9.05443 12.8222 9.05443C12.3614 9.05443 12.0659 9.33568 12.0659 9.90684V11.7629H11.1789V6.87064H12.0659V8.71095C12.2786 8.38795 12.6229 8.23039 13.0901 8.23039C13.4682 8.23039 13.7778 8.35407 14.0181 8.60854C14.2655 8.863 14.3892 9.20648 14.3892 9.65316V11.7637L14.3899 11.7629Z" fill="#868A92"/>
</g>
</svg>
