<svg width="24" height="24" viewBox="0 0 24 24" fill="none" xmlns="http://www.w3.org/2000/svg">
<g id="&#236;&#149;&#140;&#235;&#166;&#188;">
<path id="Union" fill-rule="evenodd" clip-rule="evenodd" d="M13.8524 3.24466C13.5544 2.51453 12.8373 2 12 2C11.1643 2 10.4483 2.51259 10.1492 3.24052C9.30997 3.47194 8.59618 3.86405 7.99813 4.38922C7.01359 5.25378 6.42407 6.40738 6.05025 7.56856C5.67638 8.72991 5.4969 9.96741 5.37826 11.0643C5.33194 11.4925 5.29566 11.8863 5.26225 12.2488C5.20572 12.8621 5.15743 13.3861 5.08276 13.8364C4.86845 15.1286 4.33855 15.9748 3.91871 16.5022C3.76206 16.699 3.64035 16.8303 3.52399 16.9559L3.52399 16.9559C3.46957 17.0146 3.41633 17.0721 3.36123 17.1344C3.32393 17.1765 3.2722 17.2366 3.224 17.3035L3.22281 17.3052C3.19071 17.3497 3.07889 17.5049 3.02777 17.7232C2.99807 17.8501 2.97475 18.057 3.05382 18.2919C3.13873 18.5441 3.30574 18.7224 3.47635 18.8312C3.74202 19.0006 4.01172 19.0001 4.07504 19L4.07918 19H10.2676C10.0974 19.2942 10 19.6357 10 20C10 21.1046 10.8954 22 12 22C13.1046 22 14 21.1046 14 20C14 19.6357 13.9026 19.2942 13.7324 19H20C20.3783 19 20.7243 18.7865 20.8939 18.4483C21.0635 18.1101 21.0277 17.7051 20.8014 17.4019C20.3365 16.7789 19.3316 15.1708 18.9803 13.7586C18.9362 13.5812 18.8953 13.2988 18.8492 12.8854C18.8331 12.7408 18.8128 12.544 18.7906 12.3298C18.7618 12.0511 18.73 11.7429 18.7004 11.4814C18.582 10.4343 18.4031 9.17361 18.0338 7.9591C17.6661 6.74969 17.0875 5.50989 16.1196 4.5655C15.5019 3.96285 14.7505 3.50514 13.8524 3.24466ZM7.05581 14.1636C7.14144 13.6472 7.20207 12.9947 7.26453 12.3225L7.26453 12.3224C7.29685 11.9746 7.32965 11.6216 7.36666 11.2794C7.48124 10.2201 7.6438 9.14509 7.95403 8.18144C8.26431 7.21762 8.70094 6.43372 9.3178 5.89203C9.91428 5.36825 10.7592 5 12.0396 5C13.2819 5 14.1164 5.40531 14.7228 5.997C15.3564 6.61511 15.8039 7.50031 16.1203 8.54089C16.4351 9.57639 16.5982 10.6907 16.713 11.7061C16.7478 12.0135 16.7725 12.2553 16.7964 12.4897L16.7965 12.4898L16.7965 12.49C16.8168 12.6891 16.8366 12.8829 16.8615 13.1068C16.9068 13.5137 16.9592 13.9188 17.0395 14.2414C17.2789 15.2038 17.7326 16.1867 18.1832 17H6.00954C6.43945 16.3028 6.85543 15.3719 7.05581 14.1636Z" fill="#868A92"/>
</g>
</svg>
