<svg width="24" height="24" viewBox="0 0 24 24" fill="none" xmlns="http://www.w3.org/2000/svg">
<g id="&#236;&#130;&#172;&#236;&#154;&#169;&#235;&#144;&#156; &#236;&#152;&#164;&#237;&#148;&#136;&#236;&#134;&#140;&#236;&#138;&#164;">
<g id="Union">
<mask id="path-1-inside-1_297_10207" fill="white">
<path fill-rule="evenodd" clip-rule="evenodd" d="M12.4167 4.66667C10.1685 4.66667 8.29834 6.28535 7.90814 8.42086C7.82541 8.8736 7.46024 9.25 7 9.25C6.13545 9.25 5.30894 9.67931 4.67974 10.3954C4.0487 11.1137 3.66667 12.0674 3.66667 13C3.66667 14.8409 5.15905 16.3333 7 16.3333C7.00042 16.3333 7.00085 16.3333 7.00127 16.3333H9.5C9.96024 16.3333 10.3333 16.7064 10.3333 17.1667C10.3333 17.6269 9.96024 18 9.5 18H7C4.23858 18 2 15.7614 2 13C2 11.6314 2.55071 10.2935 3.4277 9.29535C4.061 8.57457 4.89057 8.00358 5.84226 7.74079C6.16333 7.65213 6.43025 7.41754 6.54458 7.10469C7.41983 4.70964 9.71859 3 12.4167 3C15.5866 3 18.2053 5.35989 18.6119 8.41865C18.6725 8.87488 18.2936 9.25 17.8333 9.25C17.3731 9.25 17.0079 8.8736 16.9252 8.42086C16.535 6.28535 14.6649 4.66667 12.4167 4.66667Z"/>
</mask>
<path fill-rule="evenodd" clip-rule="evenodd" d="M12.4167 4.66667C10.1685 4.66667 8.29834 6.28535 7.90814 8.42086C7.82541 8.8736 7.46024 9.25 7 9.25C6.13545 9.25 5.30894 9.67931 4.67974 10.3954C4.0487 11.1137 3.66667 12.0674 3.66667 13C3.66667 14.8409 5.15905 16.3333 7 16.3333C7.00042 16.3333 7.00085 16.3333 7.00127 16.3333H9.5C9.96024 16.3333 10.3333 16.7064 10.3333 17.1667C10.3333 17.6269 9.96024 18 9.5 18H7C4.23858 18 2 15.7614 2 13C2 11.6314 2.55071 10.2935 3.4277 9.29535C4.061 8.57457 4.89057 8.00358 5.84226 7.74079C6.16333 7.65213 6.43025 7.41754 6.54458 7.10469C7.41983 4.70964 9.71859 3 12.4167 3C15.5866 3 18.2053 5.35989 18.6119 8.41865C18.6725 8.87488 18.2936 9.25 17.8333 9.25C17.3731 9.25 17.0079 8.8736 16.9252 8.42086C16.535 6.28535 14.6649 4.66667 12.4167 4.66667Z" fill="#D9D9D9"/>
<path d="M4.67974 10.3954L5.93179 11.4955H5.93179L4.67974 10.3954ZM3.4277 9.29535L2.17565 8.19528L2.17565 8.19528L3.4277 9.29535ZM18.6119 8.41865L16.9597 8.63824L18.6119 8.41865ZM5.84226 7.74079L6.28588 9.34733L5.84226 7.74079ZM6.54458 7.10469L8.10999 7.67675L6.54458 7.10469ZM16.9252 8.42086L18.5647 8.12129L16.9252 8.42086ZM7.90814 8.42086L6.26862 8.12129L7.90814 8.42086ZM12.4167 3C9.34916 3 6.8009 5.20819 6.26862 8.12129L9.54766 8.72043C9.79578 7.36252 10.9878 6.33333 12.4167 6.33333V3ZM7 7.58333C5.56496 7.58333 4.3078 8.29367 3.4277 9.29535L5.93179 11.4955C6.31008 11.0649 6.70594 10.9167 7 10.9167V7.58333ZM3.4277 9.29535C2.55048 10.2938 2 11.6317 2 13H5.33333C5.33333 12.5031 5.54691 11.9335 5.93179 11.4955L3.4277 9.29535ZM2 13C2 15.7614 4.23858 18 7 18V14.6667C6.07952 14.6667 5.33333 13.9205 5.33333 13H2ZM7 18C6.99912 18 6.9984 18 6.99877 18C6.99882 18 6.99997 18 7.00127 18V14.6667C7.00215 14.6667 7.00288 14.6667 7.00251 14.6667C7.00245 14.6667 7.0013 14.6667 7 14.6667V18ZM7.00127 18H9.5V14.6667H7.00127V18ZM9.5 18C9.03976 18 8.66667 17.6269 8.66667 17.1667H12C12 15.786 10.8807 14.6667 9.5 14.6667V18ZM8.66667 17.1667C8.66667 16.7064 9.03976 16.3333 9.5 16.3333V19.6667C10.8807 19.6667 12 18.5474 12 17.1667H8.66667ZM9.5 16.3333H7V19.6667H9.5V16.3333ZM7 16.3333C5.15905 16.3333 3.66667 14.8409 3.66667 13H0.333333C0.333333 16.6819 3.3181 19.6667 7 19.6667V16.3333ZM3.66667 13C3.66667 12.0676 4.04854 11.1138 4.67974 10.3954L2.17565 8.19528C1.05288 9.47316 0.333333 11.1951 0.333333 13H3.66667ZM4.67974 10.3954C5.13088 9.88196 5.69119 9.51154 6.28588 9.34733L5.39864 6.13425C4.08994 6.49562 2.99111 7.26717 2.17565 8.19528L4.67974 10.3954ZM8.10999 7.67675C8.75274 5.91792 10.4407 4.66667 12.4167 4.66667V1.33333C8.99649 1.33333 6.08691 3.50135 4.97917 6.53263L8.10999 7.67675ZM12.4167 4.66667C14.7399 4.66667 16.6618 6.39679 16.9597 8.63824L20.264 8.19907C19.7488 4.32298 16.4332 1.33333 12.4167 1.33333V4.66667ZM18.5647 8.12129C18.0324 5.20819 15.4842 3 12.4167 3V6.33333C13.8456 6.33333 15.0376 7.36252 15.2857 8.72043L18.5647 8.12129ZM16.9597 8.63824C16.9184 8.32736 17.0355 8.0389 17.2152 7.85158C17.3855 7.67409 17.6104 7.58333 17.8333 7.58333V10.9167C19.1454 10.9167 20.4771 9.80273 20.264 8.19907L16.9597 8.63824ZM6.28588 9.34733C7.09422 9.12412 7.79977 8.52566 8.10999 7.67675L4.97917 6.53263C5.06073 6.30943 5.23244 6.18014 5.39864 6.13425L6.28588 9.34733ZM17.8333 7.58333C18.0779 7.58333 18.2702 7.68761 18.3836 7.79493C18.4892 7.89491 18.5444 8.00987 18.5647 8.12129L15.2857 8.72043C15.4791 9.77894 16.3928 10.9167 17.8333 10.9167V7.58333ZM6.26862 8.12129C6.28897 8.00987 6.34418 7.89491 6.44978 7.79493C6.56313 7.68761 6.75547 7.58333 7 7.58333V10.9167C8.44052 10.9167 9.35425 9.77894 9.54766 8.72043L6.26862 8.12129Z" fill="#868A92" mask="url(#path-1-inside-1_297_10207)"/>
</g>
<circle id="Ellipse 49" cx="16.5" cy="15.5" r="4.75" stroke="#868A92" stroke-width="1.5"/>
<path id="Vector 109" d="M12 15.5H21" stroke="#868A92" stroke-width="1.5" stroke-linecap="round" stroke-linejoin="round"/>
<path id="Ellipse 50" d="M18.25 15.5C18.25 16.9369 17.9837 18.2015 17.585 19.0787C17.1555 20.0237 16.7154 20.25 16.5 20.25C16.2846 20.25 15.8445 20.0237 15.415 19.0787C15.0163 18.2015 14.75 16.9369 14.75 15.5C14.75 14.0631 15.0163 12.7985 15.415 11.9213C15.8445 10.9763 16.2846 10.75 16.5 10.75C16.7154 10.75 17.1555 10.9763 17.585 11.9213C17.9837 12.7985 18.25 14.0631 18.25 15.5Z" stroke="#868A92" stroke-width="1.5"/>
</g>
</svg>
