<svg width="24" height="24" viewBox="0 0 24 24" fill="none" xmlns="http://www.w3.org/2000/svg">
<g id="phone">
<path id="Vector" d="M20.9994 16.3664V19.0761C21.0005 19.3276 20.9488 19.5766 20.8479 19.8071C20.7469 20.0376 20.5988 20.2445 20.413 20.4146C20.2273 20.5846 20.008 20.7141 19.7693 20.7947C19.5305 20.8753 19.2775 20.9052 19.0265 20.8826C16.2415 20.5806 13.5664 19.6308 11.216 18.1096C9.02929 16.7228 7.17534 14.8725 5.7858 12.6902C4.25627 10.3338 3.30442 7.65096 3.00735 4.85905C2.98473 4.60927 3.01447 4.35753 3.09468 4.11986C3.17489 3.88218 3.30381 3.66378 3.47323 3.47855C3.64265 3.29333 3.84885 3.14534 4.07872 3.044C4.30858 2.94267 4.55707 2.89022 4.80837 2.88998H7.52347C7.96269 2.88567 8.3885 3.04089 8.72152 3.32673C9.05455 3.61256 9.27207 4.0095 9.33354 4.44356C9.44814 5.31073 9.66067 6.16218 9.96707 6.98167C10.0888 7.30496 10.1152 7.65631 10.043 7.99409C9.97082 8.33187 9.80313 8.64193 9.5598 8.88751L8.41041 10.0346C9.69877 12.2959 11.5748 14.1683 13.8406 15.4541L14.99 14.307C15.2361 14.0641 15.5467 13.8968 15.8852 13.8247C16.2236 13.7527 16.5757 13.779 16.8996 13.9005C17.7207 14.2063 18.5739 14.4184 19.4428 14.5328C19.8824 14.5947 20.2839 14.8157 20.5709 15.1537C20.858 15.4918 21.0105 15.9234 20.9994 16.3664Z" stroke="#868A92" stroke-width="2" stroke-linecap="round" stroke-linejoin="round"/>
</g>
</svg>
