<svg width="24" height="24" viewBox="0 0 24 24" fill="none" xmlns="http://www.w3.org/2000/svg">
<g id="&#234;&#176;&#156;&#236;&#157;&#184;&#236;&#160;&#149;&#235;&#179;&#180; &#236;&#178;&#152;&#235;&#166;&#172;">
<path id="Vector" d="M13.1468 21.197L14.8168 20.029C16.9519 18.5344 18.6045 16.4493 19.572 14.0293C20.5395 11.6093 20.78 8.95961 20.2638 6.405C20.2383 6.27911 20.1842 6.16078 20.1057 6.05916C20.0271 5.95755 19.9262 5.87537 19.8108 5.819L11.9998 2L4.18983 5.819C4.07424 5.87525 3.97316 5.95738 3.89442 6.059C3.81569 6.16062 3.76142 6.27902 3.73583 6.405C3.21981 8.9597 3.46041 11.6095 4.42812 14.0294C5.39583 16.4494 7.0486 18.5345 9.18383 20.029L10.8538 21.197C11.1899 21.4321 11.5902 21.5582 12.0003 21.5582C12.4105 21.5582 12.8108 21.4321 13.1468 21.197V21.197Z" stroke="#868A92" stroke-width="2" stroke-linecap="round" stroke-linejoin="round"/>
</g>
</svg>
