<svg width="24" height="24" viewBox="0 0 24 24" fill="none" xmlns="http://www.w3.org/2000/svg">
<g id="SNS">
<path id="Vector" d="M3 17.6269L3 8.69108C3.00001 8.67111 3.00501 8.65148 3.01453 8.63402C3.02406 8.61657 3.03779 8.60186 3.05445 8.5913L9.87285 4.28997C10.0801 4.1567 10.3115 4.06686 10.5533 4.0257C10.7952 3.98454 11.0427 3.99289 11.2814 4.05026C11.52 4.10764 11.745 4.21288 11.9431 4.35982C12.1413 4.50677 12.3086 4.69246 12.4353 4.90601C12.5619 5.11956 12.6454 5.35668 12.6809 5.60348C12.7163 5.85027 12.7029 6.10178 12.6416 6.34325C12.5802 6.58473 12.4721 6.81131 12.3235 7.00974C12.1749 7.20816 11.9889 7.37443 11.7764 7.4988L9.88905 8.62563L19.2261 8.62563C19.6966 8.62563 20.1478 8.81571 20.4804 9.15406C20.8131 9.49242 21 9.95132 21 10.4298C21 10.9083 20.8131 11.3672 20.4804 11.7056C20.1478 12.0439 19.6966 12.234 19.2261 12.234L15.028 12.234C14.7648 12.234 14.5483 12.4468 14.5398 12.7146L14.3652 18.0334C14.3567 18.2927 14.2494 18.5385 14.066 18.7188C13.8826 18.8992 13.6375 19 13.3824 19L4.35 19C3.99196 19 3.64858 18.8553 3.39541 18.5978C3.14223 18.3403 3 17.9911 3 17.6269Z" stroke="#868A92" stroke-width="2" stroke-linecap="round" stroke-linejoin="round"/>
</g>
</svg>
