<svg width="24" height="24" viewBox="0 0 24 24" fill="none" xmlns="http://www.w3.org/2000/svg">
<g id="&#236;&#131;&#136;&#235;&#161;&#156;&#236;&#154;&#180; &#235;&#130;&#180;&#236;&#154;&#169;">
<path id="Vector" d="M21.2831 9.67501L15.3323 8.81016L12.6722 3.4172C12.5995 3.26954 12.48 3.15001 12.3323 3.07735C11.962 2.89454 11.512 3.04688 11.3268 3.4172L8.66668 8.81016L2.7159 9.67501C2.55184 9.69845 2.40184 9.77579 2.28699 9.89298C2.14815 10.0357 2.07165 10.2277 2.07428 10.4267C2.07692 10.6258 2.15849 10.8157 2.30106 10.9547L6.60653 15.1524L5.58934 21.0797C5.56549 21.2176 5.58074 21.3594 5.63338 21.489C5.68602 21.6187 5.77394 21.731 5.88716 21.8132C6.00038 21.8955 6.13437 21.9443 6.27395 21.9543C6.41353 21.9642 6.5531 21.9349 6.67684 21.8695L11.9995 19.0711L17.3222 21.8695C17.4675 21.9469 17.6362 21.9727 17.7979 21.9445C18.2058 21.8742 18.48 21.4875 18.4097 21.0797L17.3925 15.1524L21.6979 10.9547C21.8151 10.8399 21.8925 10.6899 21.9159 10.5258C21.9792 10.1156 21.6933 9.73595 21.2831 9.67501ZM15.5808 14.5617L16.4268 19.4906L11.9995 17.1656L7.57215 19.493L8.41825 14.5641L4.837 11.0719L9.787 10.3524L11.9995 5.86876L14.212 10.3524L19.162 11.0719L15.5808 14.5617Z" fill="#868A92"/>
</g>
</svg>
