<svg width="24" height="24" viewBox="0 0 24 24" fill="none" xmlns="http://www.w3.org/2000/svg">
<g id="Gear">
<path id="Vector" fill-rule="evenodd" clip-rule="evenodd" d="M9.99948 2C9.73427 2 9.47991 2.10536 9.29238 2.29289C9.10484 2.48043 8.99948 2.73478 8.99948 3V4.582C8.30984 4.86134 7.66259 5.23562 7.07648 5.694L5.70548 4.902C5.4758 4.7694 5.20286 4.73346 4.94668 4.8021C4.69051 4.87074 4.47209 5.03833 4.33948 5.268L2.33948 8.732C2.20688 8.96168 2.17094 9.23463 2.23958 9.4908C2.30822 9.74697 2.47581 9.96539 2.70548 10.098L4.07548 10.889C3.97292 11.6261 3.97292 12.3739 4.07548 13.111L2.70548 13.901C2.59163 13.9667 2.49183 14.0541 2.41181 14.1584C2.33178 14.2627 2.27309 14.3817 2.2391 14.5086C2.20511 14.6356 2.19648 14.768 2.2137 14.8983C2.23093 15.0286 2.27367 15.1542 2.33948 15.268L4.33948 18.732C4.47209 18.9617 4.69051 19.1293 4.94668 19.1979C5.20286 19.2665 5.4758 19.2306 5.70548 19.098L7.07648 18.306C7.65748 18.761 8.30448 19.136 8.99948 19.418V21C8.99948 21.2652 9.10484 21.5196 9.29238 21.7071C9.47991 21.8946 9.73427 22 9.99948 22H13.9995C14.2647 22 14.5191 21.8946 14.7066 21.7071C14.8941 21.5196 14.9995 21.2652 14.9995 21V19.418C15.6891 19.1386 16.3364 18.7644 16.9225 18.306L18.2935 19.098C18.5232 19.2306 18.7961 19.2665 19.0523 19.1979C19.3085 19.1293 19.5269 18.9617 19.6595 18.732L21.6595 15.268C21.7921 15.0383 21.828 14.7654 21.7594 14.5092C21.6907 14.253 21.5232 14.0346 21.2935 13.902L19.9235 13.111C20.026 12.3739 20.026 11.6261 19.9235 10.889L21.2935 10.099C21.4073 10.0333 21.5071 9.94587 21.5872 9.84161C21.6672 9.73735 21.7259 9.61833 21.7599 9.49137C21.7939 9.36441 21.8025 9.23199 21.7853 9.10169C21.768 8.97139 21.7253 8.84577 21.6595 8.732L19.6595 5.268C19.5269 5.03833 19.3085 4.87074 19.0523 4.8021C18.7961 4.73346 18.5232 4.7694 18.2935 4.902L16.9225 5.694C16.3364 5.23563 15.6891 4.86135 14.9995 4.582V3C14.9995 2.73478 14.8941 2.48043 14.7066 2.29289C14.5191 2.10536 14.2647 2 13.9995 2H9.99948ZM10.9995 5.29V4H12.9995V5.29C12.9996 5.50539 13.0692 5.71498 13.1981 5.8876C13.3269 6.06021 13.508 6.18661 13.7145 6.248C14.6148 6.51688 15.4394 6.99372 16.1215 7.64C16.278 7.78826 16.4782 7.88199 16.6922 7.90722C16.9063 7.93245 17.1228 7.88783 17.3095 7.78L18.4275 7.134L19.4275 8.866L18.3105 9.511C18.1241 9.6186 17.9774 9.78347 17.8922 9.98111C17.807 10.1787 17.7878 10.3986 17.8375 10.608C18.055 11.5233 18.055 12.4767 17.8375 13.392C17.7878 13.6014 17.807 13.8213 17.8922 14.0189C17.9774 14.2165 18.1241 14.3814 18.3105 14.489L19.4275 15.134L18.4275 16.866L17.3085 16.22C17.1219 16.1124 16.9056 16.0679 16.6918 16.0931C16.4779 16.1184 16.2779 16.212 16.1215 16.36C15.4394 17.0063 14.6149 17.4832 13.7145 17.752C13.508 17.8134 13.3269 17.9398 13.1981 18.1124C13.0692 18.285 12.9996 18.4946 12.9995 18.71V20H10.9995V18.71C10.9994 18.4946 10.9297 18.285 10.8009 18.1124C10.6721 17.9398 10.4909 17.8134 10.2845 17.752C9.3841 17.4832 8.55957 17.0063 7.87748 16.36C7.721 16.2117 7.5208 16.118 7.30672 16.0928C7.09264 16.0676 6.87614 16.1122 6.68948 16.22L5.57148 16.866L4.57148 15.134L5.68848 14.489C5.87488 14.3814 6.02158 14.2165 6.10679 14.0189C6.19201 13.8213 6.21119 13.6014 6.16148 13.392C5.94395 12.4767 5.94395 11.5233 6.16148 10.608C6.21119 10.3986 6.19201 10.1787 6.10679 9.98111C6.02158 9.78347 5.87488 9.6186 5.68848 9.511L4.57148 8.866L5.57148 7.134L6.68948 7.78C6.87614 7.88783 7.09264 7.93245 7.30672 7.90722C7.5208 7.88199 7.721 7.78826 7.87748 7.64C8.55959 6.99372 9.38412 6.51688 10.2845 6.248C10.4909 6.18661 10.6721 6.06021 10.8009 5.8876C10.9297 5.71498 10.9994 5.50539 10.9995 5.29ZM9.99948 12C9.99948 11.4696 10.2102 10.9609 10.5853 10.5858C10.9603 10.2107 11.469 10 11.9995 10C12.5299 10 13.0386 10.2107 13.4137 10.5858C13.7888 10.9609 13.9995 11.4696 13.9995 12C13.9995 12.5304 13.7888 13.0391 13.4137 13.4142C13.0386 13.7893 12.5299 14 11.9995 14C11.469 14 10.9603 13.7893 10.5853 13.4142C10.2102 13.0391 9.99948 12.5304 9.99948 12ZM11.9995 8C10.9386 8 9.9212 8.42143 9.17105 9.17157C8.42091 9.92172 7.99948 10.9391 7.99948 12C7.99948 13.0609 8.42091 14.0783 9.17105 14.8284C9.9212 15.5786 10.9386 16 11.9995 16C13.0603 16 14.0778 15.5786 14.8279 14.8284C15.5781 14.0783 15.9995 13.0609 15.9995 12C15.9995 10.9391 15.5781 9.92172 14.8279 9.17157C14.0778 8.42143 13.0603 8 11.9995 8Z" fill="#868A92"/>
</g>
</svg>
