<svg width="20" height="20" viewBox="0 0 20 20" fill="none" xmlns="http://www.w3.org/2000/svg">
<g id="&#237;&#156;&#180;&#236;&#167;&#128;&#237;&#134;&#181;2">
<path id="Union" fill-rule="evenodd" clip-rule="evenodd" d="M7.75039 2.5999C7.66755 2.5999 7.60039 2.66706 7.60039 2.7499V3.8999H11.9004V2.7499C11.9004 2.66706 11.8332 2.5999 11.7504 2.5999H7.75039ZM4.75039 3.8999H5.90039V2.7499C5.90039 1.72818 6.72866 0.899902 7.75039 0.899902H11.7504C12.7721 0.899902 13.6004 1.72818 13.6004 2.7499V3.8999H14.7504H16.7504C17.2198 3.8999 17.6004 4.28046 17.6004 4.7499C17.6004 5.21934 17.2198 5.5999 16.7504 5.5999H15.6004V15.7499C15.6004 17.3239 14.3244 18.5999 12.7504 18.5999H6.75039C5.17638 18.5999 3.90039 17.3239 3.90039 15.7499V5.5999H2.75039C2.28095 5.5999 1.90039 5.21934 1.90039 4.7499C1.90039 4.28046 2.28095 3.8999 2.75039 3.8999H4.75039ZM5.60039 5.5999V15.7499C5.60039 16.385 6.11526 16.8999 6.75039 16.8999H12.7504C13.3855 16.8999 13.9004 16.385 13.9004 15.7499V5.5999H12.7504H6.75039H5.60039ZM7.75039 6.8999C8.21983 6.8999 8.60039 7.28046 8.60039 7.7499V14.7499C8.60039 15.2193 8.21983 15.5999 7.75039 15.5999C7.28095 15.5999 6.90039 15.2193 6.90039 14.7499V7.7499C6.90039 7.28046 7.28095 6.8999 7.75039 6.8999ZM12.6004 7.7499C12.6004 7.28046 12.2198 6.8999 11.7504 6.8999C11.2809 6.8999 10.9004 7.28046 10.9004 7.7499V14.7499C10.9004 15.2193 11.2809 15.5999 11.7504 15.5999C12.2198 15.5999 12.6004 15.2193 12.6004 14.7499V7.7499Z" fill="black"/>
</g>
</svg>
