<svg width="1024" height="1024" viewBox="0 0 1024 1024" fill="none" xmlns="http://www.w3.org/2000/svg">
<g clip-path="url(#clip0_3984_18505)">
<rect width="1024" height="1024" fill="white"/>
<mask id="path-2-inside-1_3984_18505" fill="white">
<path fill-rule="evenodd" clip-rule="evenodd" d="M663.56 399.069C658.132 399.846 652.584 400.248 646.941 400.248C585.065 400.248 534.472 351.906 530.822 290.904L200.02 482.024C173.368 497.423 173.368 535.896 200.02 551.294L603.55 784.433C630.216 799.839 663.56 780.595 663.56 749.798L663.56 399.069Z"/>
</mask>
<path fill-rule="evenodd" clip-rule="evenodd" d="M663.56 399.069C658.132 399.846 652.584 400.248 646.941 400.248C585.065 400.248 534.472 351.906 530.822 290.904L200.02 482.024C173.368 497.423 173.368 535.896 200.02 551.294L603.55 784.433C630.216 799.839 663.56 780.595 663.56 749.798L663.56 399.069Z" fill="#3DBD80"/>
<path d="M663.56 399.069L700.634 399.069L700.634 356.311L658.307 362.369L663.56 399.069ZM530.822 290.904L567.829 288.69L564.244 228.777L512.275 258.803L530.822 290.904ZM200.02 482.024L181.474 449.923L181.474 449.923L200.02 482.024ZM200.02 551.294L218.567 519.193L218.567 519.193L200.02 551.294ZM603.55 784.433L585.003 816.534L585.003 816.534L603.55 784.433ZM663.56 749.798L700.634 749.798L700.634 749.798L663.56 749.798ZM658.307 362.369C654.614 362.898 650.821 363.174 646.941 363.174V437.322C654.347 437.322 661.651 436.795 668.813 435.769L658.307 362.369ZM646.941 363.174C604.821 363.174 570.316 330.251 567.829 288.69L493.814 293.119C498.627 373.56 565.309 437.322 646.941 437.322V363.174ZM218.567 514.126L549.368 323.006L512.275 258.803L181.474 449.923L218.567 514.126ZM218.567 519.193C217.83 518.767 217.587 518.406 217.457 518.172C217.272 517.838 217.105 517.317 217.105 516.659C217.105 516.002 217.272 515.48 217.457 515.147C217.587 514.912 217.83 514.551 218.567 514.126L181.474 449.923C130.118 479.594 130.118 553.725 181.474 583.396L218.567 519.193ZM622.096 752.331L218.567 519.193L181.474 583.396L585.003 816.534L622.096 752.331ZM626.486 749.798C626.486 750.649 626.295 751.041 626.157 751.27C625.961 751.597 625.592 752.003 625.023 752.332C624.453 752.661 623.917 752.777 623.536 752.783C623.268 752.788 622.834 752.757 622.096 752.331L585.003 816.534C636.386 846.221 700.634 809.14 700.634 749.798H626.486ZM626.486 399.069L626.486 749.798L700.634 749.798L700.634 399.069L626.486 399.069Z" fill="#3DBD80" mask="url(#path-2-inside-1_3984_18505)"/>
<ellipse cx="646.941" cy="283.836" rx="74.784" ry="74.8356" fill="#3DBD80"/>
<rect x="733.067" y="572.593" width="59.5978" height="123.084" rx="29.7989" transform="rotate(-90 733.067 572.593)" fill="#3DBD80"/>
<rect width="59.5772" height="128" rx="29.7886" transform="matrix(0.707107 -0.707107 0.706619 0.707595 723.15 666.363)" fill="#3DBD80"/>
<rect width="59.5772" height="128" rx="29.7886" transform="matrix(-0.707107 -0.707107 -0.706619 0.707595 857.894 358.441)" fill="#3DBD80"/>
<rect x="282.422" y="225.959" width="63.5271" height="586.045" rx="31.7635" fill="#3DBD80"/>
</g>
<defs>
<clipPath id="clip0_3984_18505">
<rect width="1024" height="1024" fill="white"/>
</clipPath>
</defs>
</svg>
